<svg width="25" height="24" viewBox="0 0 25 24" fill="none" xmlns="http://www.w3.org/2000/svg">
<path d="M12.8125 5.81055C16.1348 5.81055 18.877 8.55273 18.877 11.875C18.877 15.25 16.1348 17.9395 12.8125 17.9395C9.4375 17.9395 6.74805 15.25 6.74805 11.875C6.74805 8.55273 9.4375 5.81055 12.8125 5.81055ZM12.8125 15.8301C14.9746 15.8301 16.7148 14.0898 16.7148 11.875C16.7148 9.71289 14.9746 7.97266 12.8125 7.97266C10.5977 7.97266 8.85742 9.71289 8.85742 11.875C8.85742 14.0898 10.6504 15.8301 12.8125 15.8301ZM20.5117 5.59961C20.5117 6.39062 19.8789 7.02344 19.0879 7.02344C18.2969 7.02344 17.6641 6.39062 17.6641 5.59961C17.6641 4.80859 18.2969 4.17578 19.0879 4.17578C19.8789 4.17578 20.5117 4.80859 20.5117 5.59961ZM24.5195 7.02344C24.625 8.97461 24.625 14.8281 24.5195 16.7793C24.4141 18.6777 23.9922 20.3125 22.6211 21.7363C21.25 23.1074 19.5625 23.5293 17.6641 23.6348C15.7129 23.7402 9.85938 23.7402 7.9082 23.6348C6.00977 23.5293 4.375 23.1074 2.95117 21.7363C1.58008 20.3125 1.1582 18.6777 1.05273 16.7793C0.947266 14.8281 0.947266 8.97461 1.05273 7.02344C1.1582 5.125 1.58008 3.4375 2.95117 2.06641C4.375 0.695312 6.00977 0.273438 7.9082 0.167969C9.85938 0.0625 15.7129 0.0625 17.6641 0.167969C19.5625 0.273438 21.25 0.695312 22.6211 2.06641C23.9922 3.4375 24.4141 5.125 24.5195 7.02344ZM21.9883 18.8359C22.6211 17.3066 22.4629 13.6152 22.4629 11.875C22.4629 10.1875 22.6211 6.49609 21.9883 4.91406C21.5664 3.91211 20.7754 3.06836 19.7734 2.69922C18.1914 2.06641 14.5 2.22461 12.8125 2.22461C11.0723 2.22461 7.38086 2.06641 5.85156 2.69922C4.79688 3.12109 4.00586 3.91211 3.58398 4.91406C2.95117 6.49609 3.10938 10.1875 3.10938 11.875C3.10938 13.6152 2.95117 17.3066 3.58398 18.8359C4.00586 19.8906 4.79688 20.6816 5.85156 21.1035C7.38086 21.7363 11.0723 21.5781 12.8125 21.5781C14.5 21.5781 18.1914 21.7363 19.7734 21.1035C20.7754 20.6816 21.6191 19.8906 21.9883 18.8359Z" fill="#F6F6F6"/>
</svg>
